<svg width="840" height="250" viewBox="0 0 840 250" fill="none" xmlns="http://www.w3.org/2000/svg">
<g clip-path="url(#clip0_203_20)">
<path d="M120.71 139.286V127.786H150.91C154.91 127.786 156.91 125.752 156.91 121.686V116.786H126.01C120.143 116.786 115.843 115.319 113.11 112.386C110.443 109.452 109.11 105.652 109.11 100.986V65.2855H123.61V99.2855C123.61 103.286 125.61 105.286 129.61 105.286H156.41V65.2855H171.41V123.486C171.41 128.219 170.043 132.019 167.31 134.886C164.577 137.819 160.31 139.286 154.51 139.286H120.71ZM180.75 117.286V105.786H229.75C232.55 105.786 233.95 104.219 233.95 101.086C233.95 98.0189 232.55 96.4855 229.75 96.4855H198.05C192.116 96.4855 187.616 95.1522 184.55 92.4855C181.483 89.7522 179.95 85.8522 179.95 80.7855C179.95 75.6522 181.483 71.7189 184.55 68.9855C187.683 66.1855 192.183 64.7855 198.05 64.7855H243.65V76.2855H198.75C195.883 76.2855 194.45 77.6855 194.45 80.4855C194.45 81.8855 194.85 82.9855 195.65 83.7855C196.45 84.5855 197.483 84.9855 198.75 84.9855H232.35C237.55 84.9855 241.516 86.3522 244.25 89.0855C247.05 91.7522 248.45 95.6522 248.45 100.786C248.45 105.986 247.05 110.052 244.25 112.986C241.45 115.852 237.483 117.286 232.35 117.286H180.75ZM283.761 116.786C277.961 116.786 273.695 115.352 270.961 112.486C268.228 109.552 266.861 105.719 266.861 100.986V76.7855H251.961V65.2855H266.861V49.4855H281.361V65.2855H302.761V76.7855H281.361V99.1855C281.361 103.252 283.361 105.286 287.361 105.286H305.561V116.786H283.761ZM339.416 117.286C330.483 117.286 323.516 115.086 318.516 110.686C313.516 106.219 311.016 99.6855 311.016 91.0855C311.016 82.4189 313.516 75.8855 318.516 71.4855C323.516 67.0189 330.483 64.7855 339.416 64.7855H364.416C370.283 64.7855 374.749 66.1855 377.816 68.9855C380.949 71.7189 382.516 75.6522 382.516 80.7855C382.516 91.2522 376.483 96.4855 364.416 96.4855H326.616C328.016 102.686 332.283 105.786 339.416 105.786H379.916V117.286H339.416ZM339.416 76.2855C332.549 76.2855 328.316 79.1855 326.716 84.9855H363.716C365.049 84.9855 366.083 84.5855 366.816 83.7855C367.616 82.9855 368.016 81.8855 368.016 80.4855C368.016 77.6855 366.583 76.2855 363.716 76.2855H339.416ZM391.532 116.786V65.2855H458.232C464.098 65.2855 468.398 66.7522 471.132 69.6855C473.865 72.5522 475.232 76.3522 475.232 81.0855V116.786H460.732V82.8855C460.732 78.8189 458.665 76.7855 454.532 76.7855H440.632V116.786H426.132V76.7855H406.032V116.786H391.532Z" fill="white"/>
<path d="M92.2298 199.32V127.82H108.23V199.32H92.2298ZM120.71 199.32V147.82H165.61C171.477 147.82 175.744 149.287 178.41 152.22C181.144 155.087 182.51 158.887 182.51 163.62V199.32H168.01V165.32C168.01 161.32 166.01 159.32 162.01 159.32H135.21V199.32H120.71ZM219.776 199.32C213.976 199.32 209.709 197.887 206.976 195.02C204.243 192.087 202.876 188.253 202.876 183.52V159.32H187.976V147.82H202.876V132.02H217.376V147.82H238.776V159.32H217.376V181.72C217.376 185.787 219.376 187.82 223.376 187.82H241.576V199.32H219.776ZM275.431 199.82C266.497 199.82 259.531 197.62 254.531 193.22C249.531 188.753 247.031 182.22 247.031 173.62C247.031 164.953 249.531 158.42 254.531 154.02C259.531 149.553 266.497 147.32 275.431 147.32H300.431C306.297 147.32 310.764 148.72 313.831 151.52C316.964 154.253 318.531 158.187 318.531 163.32C318.531 173.787 312.497 179.02 300.431 179.02H262.631C264.031 185.22 268.297 188.32 275.431 188.32H315.931V199.82H275.431ZM275.431 158.82C268.564 158.82 264.331 161.72 262.731 167.52H299.731C301.064 167.52 302.097 167.12 302.831 166.32C303.631 165.52 304.031 164.42 304.031 163.02C304.031 160.22 302.597 158.82 299.731 158.82H275.431ZM339.746 221.82V210.32H369.946C373.946 210.32 375.946 208.287 375.946 204.22V199.32H353.946C345.013 199.32 338.046 197.12 333.046 192.72C328.046 188.32 325.546 181.953 325.546 173.62C325.546 165.22 328.046 158.82 333.046 154.42C338.046 150.02 345.013 147.82 353.946 147.82H390.446V206.02C390.446 210.753 389.08 214.553 386.346 217.42C383.613 220.353 379.346 221.82 373.546 221.82H339.746ZM353.946 187.82H375.946V159.32H353.946C349.613 159.32 346.28 160.52 343.946 162.92C341.68 165.253 340.546 168.82 340.546 173.62C340.546 178.353 341.68 181.92 343.946 184.32C346.28 186.653 349.613 187.82 353.946 187.82ZM401.472 199.32V147.82H440.872C446.672 147.82 450.939 149.287 453.672 152.22C456.405 155.087 457.772 158.887 457.772 163.62V174.32H443.072V165.42C443.072 161.42 441.072 159.42 437.072 159.42H416.172V199.32H401.472ZM479.43 199.32C474.03 199.32 469.896 197.953 467.03 195.22C464.163 192.487 462.73 188.587 462.73 183.52C462.73 178.52 464.163 174.653 467.03 171.92C469.896 169.187 474.03 167.82 479.43 167.82H517.83V165.42C517.83 161.353 515.83 159.32 511.83 159.32H469.43V147.82H515.63C521.696 147.82 525.996 149.22 528.53 152.02C531.063 154.753 532.33 158.62 532.33 163.62V199.32H479.43ZM482.03 187.82H517.83V179.32H482.03C480.763 179.32 479.763 179.72 479.03 180.52C478.363 181.253 478.03 182.253 478.03 183.52C478.03 184.787 478.363 185.82 479.03 186.62C479.763 187.42 480.763 187.82 482.03 187.82ZM570.167 199.32C564.367 199.32 560.1 197.887 557.367 195.02C554.633 192.087 553.267 188.253 553.267 183.52V159.32H538.367V147.82H553.267V132.02H567.767V147.82H589.167V159.32H567.767V181.72C567.767 185.787 569.767 187.82 573.767 187.82H591.967V199.32H570.167ZM625.821 199.82C616.888 199.82 609.921 197.62 604.921 193.22C599.921 188.753 597.421 182.22 597.421 173.62C597.421 164.953 599.921 158.42 604.921 154.02C609.921 149.553 616.888 147.32 625.821 147.32H644.321C653.255 147.32 660.221 149.553 665.221 154.02C670.221 158.42 672.721 164.953 672.721 173.62C672.721 182.22 670.221 188.753 665.221 193.22C660.221 197.62 653.255 199.82 644.321 199.82H625.821ZM625.821 188.32H644.321C648.655 188.32 651.955 187.12 654.221 184.72C656.555 182.32 657.721 178.62 657.721 173.62C657.721 168.553 656.555 164.82 654.221 162.42C651.955 160.02 648.655 158.82 644.321 158.82H625.821C621.488 158.82 618.155 160.02 615.821 162.42C613.555 164.82 612.421 168.553 612.421 173.62C612.421 178.62 613.555 182.32 615.821 184.72C618.155 187.12 621.488 188.32 625.821 188.32ZM681.745 199.32V147.82H721.145C726.945 147.82 731.212 149.287 733.945 152.22C736.679 155.087 738.045 158.887 738.045 163.62V174.32H723.345V165.42C723.345 161.42 721.345 159.42 717.345 159.42H696.445V199.32H681.745ZM744.303 199.82V188.32H793.303C796.103 188.32 797.503 186.753 797.503 183.62C797.503 180.553 796.103 179.02 793.303 179.02H761.603C755.67 179.02 751.17 177.687 748.103 175.02C745.037 172.287 743.503 168.387 743.503 163.32C743.503 158.187 745.037 154.253 748.103 151.52C751.237 148.72 755.737 147.32 761.603 147.32H807.203V158.82H762.303C759.437 158.82 758.003 160.22 758.003 163.02C758.003 164.42 758.403 165.52 759.203 166.32C760.003 167.12 761.037 167.52 762.303 167.52H795.903C801.103 167.52 805.07 168.887 807.803 171.62C810.603 174.287 812.003 178.187 812.003 183.32C812.003 188.52 810.603 192.587 807.803 195.52C805.003 198.387 801.037 199.82 795.903 199.82H744.303Z" fill="white"/>
<path d="M17.9405 57.1001C17.9405 57.1001 17.2843 44.7697 36.1601 44.7697H99.7189V57.1001H17.9405Z" fill="white"/>
<path d="M99.7136 104.455C99.7136 104.455 100.37 116.786 81.4941 116.786C70.0091 116.786 17.9353 116.786 17.9353 116.786V104.455H99.7136Z" fill="white"/>
<path d="M17.9408 64.7256C17.9408 64.7256 17.9408 75.443 25.8768 80.8285C25.8768 80.8285 32.3639 86.1605 43.9045 86.1605C44.9192 86.1605 70.7062 85.8872 70.7062 85.8872C70.7062 85.8872 80.3788 85.7693 83.7309 88.8291C83.7309 88.8291 87.4011 90.7583 87.4011 96.8833H100.158C100.158 96.8833 101.577 87.6984 93.2774 80.3034C93.2774 80.3034 89.9505 76.9488 83.4482 75.084C80.9039 74.3552 78.2484 74.0444 75.5879 74.0015C69.8682 73.9104 61.084 73.9104 56.8888 73.9104C55.445 73.9104 40.8653 74.7732 36.4581 72.8923C36.4581 72.8923 30.3648 71.9384 30.703 64.7256H17.9458H17.9408Z" fill="#45DB98"/>
</g>
<defs>
<clipPath id="clip0_203_20">
<rect width="840" height="250" fill="white"/>
</clipPath>
</defs>
</svg>
